# xmcd
#
# Track frame offsets: 
#        150
#        22206
#        40778
#        58311
#        73488
#        86184
#        97413
#        114266
#        137189
#        160683
#        180405
#
# Disc length: 2682 seconds
#
# Revision: 0
# Processed by: cddbd v1.5.2PL0 Copyright (c) Steve Scherf et al.
# Submitted via: ExactAudioCopyFreeDBPlugin 1.0
#
DISCID=a30a780b
DTITLE=Idris Elba - Idris Elba presents mi Mandela 
DYEAR=2014
DGENRE=R&B
TTITLE0=Izzi Dunn - Idris Elba - Aero Manyelo - Mahotella Queens  - Ae
TTITLE0=ro Mathata 
TTITLE1=Idris Elba - Shaun Escoffery  - So Many People 
TTITLE2=Idris Elba - Mr. Hudson - Maverick Sabre  - You Give Me Love
TTITLE3=The London African Gospel Choir - Idris Elba  - Thank You for 
TTITLE3=Freedom 
TTITLE4=Idris Elba - George the Poet  - One 
TTITLE5=Idris Elba - Mr. Hudson - Mi Mandela 
TTITLE6=Cody ChesnuTT - Idris Elba - Mr. Hudson - Dan Muir  - Tree
TTITLE7=Mumford and Sons  - Home 
TTITLE8=Idris Elba - Mr. Hudson - Nothembi Mkhwebane  - Nothembi Jam 
TTITLE9=Izzi Dunn - Idris Elba - Mr. Hudson - George the Poet - Maveri
TTITLE9=ck Sabre  - Hold On 
TTITLE10=Izzi Dunn - Idris Elba - Dan Muir  - Soldiers Don't Back Down
TTITLE10=
EXTD=2014\n\nPlaying Nelson Mandela in 2013’s theatrical release, Mand
EXTD=ela: Long Walk to Freedom, clearly struck a chord with the Britis
EXTD=h actor Idris Elba – a musical one. On Idris Elba Presents mi Man
EXTD=dela, a 14-track project on Elba’s own 7wallace imprint, the acto
EXTD=r offers an uplifting journey, inspired by Mandela and his own la
EXTD=te father. The music incorporates a variety of South African rhyt
EXTD=hms and styles, including marabi, kwela, mbaqanga and mbube, mixe
EXTD=d in with western sounds. Elba largely wrote the album on a keybo
EXTD=ard and laptop during the filming of Long Walk to Freedom, but it
EXTD=’s far from a solo venture. The opening track, the lilting Aero M
EXTD=athata, blends vocals from the famed mbaqanga group Mahotella Que
EXTD=ens with the producer Aero Manyelo’s Afro-tech beats. So Many Peo
EXTD=ple, featuring the British actor-singer Shaun Escoffery, melds li
EXTD=ght African rhythms with 1970s-style Isaac Hayes soul. 
EXTT0=
EXTT1=
EXTT2=
EXTT3=
EXTT4=
EXTT5=
EXTT6=
EXTT7=
EXTT8=
EXTT9=
EXTT10=
PLAYORDER=
